<svg xmlns="http://www.w3.org/2000/svg" data-name="Layer 1" viewBox="0 0 100 125" x="0px" y="0px">
  <defs>
    <style>.cls-1{fill-rule:evenodd;}</style>
  </defs>
  <title>A</title>
  <path class="cls-1" d="M40.652,14.348A35.667,35.667,0,0,1,72.9,65.228H92.353A2.647,2.647,0,0,1,95,67.875v15.13a2.647,2.647,0,0,1-2.647,2.647h-51.7a35.652,35.652,0,0,1,0-71.3ZM69.809,70.522a35.816,35.816,0,0,1-10.455,9.836H89.706V70.522ZM40.652,46.533A3.467,3.467,0,1,0,44.119,50a3.466,3.466,0,0,0-3.467-3.467ZM68.736,50a10.34,10.34,0,1,0-3.029,7.31A10.306,10.306,0,0,0,68.736,50Zm-6.772,3.567A5.046,5.046,0,1,0,58.4,55.044a5.028,5.028,0,0,0,3.567-1.477ZM40.652,78.083a10.338,10.338,0,1,0-7.31-3.028,10.307,10.307,0,0,0,7.31,3.028Zm-3.567-6.771a5.046,5.046,0,1,0-1.477-3.567,5.032,5.032,0,0,0,1.477,3.567ZM12.569,50A10.338,10.338,0,1,0,15.6,42.69,10.309,10.309,0,0,0,12.569,50Zm6.772-3.567a5.046,5.046,0,1,0,3.567-1.477,5.029,5.029,0,0,0-3.567,1.477ZM40.652,21.917a10.338,10.338,0,1,0,7.311,3.028,10.306,10.306,0,0,0-7.311-3.028Zm3.568,6.771A5.046,5.046,0,1,0,45.7,32.255a5.033,5.033,0,0,0-1.477-3.567Zm17.9-.155A30.359,30.359,0,1,0,71.011,50,30.264,30.264,0,0,0,62.119,28.533Z"/>
  <text x="0" y="115" fill="#000000" font-size="5px" font-weight="bold" font-family="'Helvetica Neue', Helvetica, Arial-Unicode, Arial, Sans-serif">Created by Topicons</text>
  <text x="0" y="120" fill="#000000" font-size="5px" font-weight="bold" font-family="'Helvetica Neue', Helvetica, Arial-Unicode, Arial, Sans-serif">from the Noun Project</text>
</svg>
